<?xml version="1.0" encoding="UTF-8"?>
<svg width="490px" height="131px" viewBox="0 0 490 131" version="1.1" xmlns="http://www.w3.org/2000/svg" xmlns:xlink="http://www.w3.org/1999/xlink">
    <!-- Generator: Sketch 49.2 (51160) - http://www.bohemiancoding.com/sketch -->
    <title>ensenta-logo-mcm-no-TM Copy</title>
    <desc>Created with Sketch.</desc>
    <defs></defs>
    <g id="Resources" stroke="none" stroke-width="1" fill="none" fill-rule="evenodd">
        <g id="ensenta-logo-mcm-no-TM-Copy">
            <path d="M447.535802,37.9092322 C448.868184,36.0468957 450.576183,34.551488 452.645626,33.423009 C454.71507,32.2945301 457.03965,31.4914408 459.619367,31.0068179 C462.199084,30.5291182 464.800062,30.2868068 467.415215,30.2868068 C469.782318,30.2868068 472.184856,30.4391168 474.622831,30.7506601 C477.060805,31.0622034 479.271991,31.6714435 481.27765,32.5714574 C483.283309,33.4783945 484.927524,34.7314908 486.203208,36.3376694 C487.478893,37.9438481 488.123822,40.0761887 488.123822,42.7277681 L488.123822,65.4981197 C488.123822,67.4712271 488.244303,69.3612562 488.485266,71.1682072 C488.726228,72.9751582 489.151456,74.3321022 489.76095,75.2321161 L476.62849,75.2321161 C476.38044,74.5536441 476.189087,73.8613257 476.040257,73.1620842 C475.891428,72.4559194 475.778033,71.7359083 475.721336,71.0020508 C473.651893,72.9751582 471.221006,74.359795 468.428675,75.1490379 C465.629257,75.9382809 462.773142,76.3329024 459.860329,76.3329024 C457.613708,76.3329024 455.508829,76.0767446 453.566954,75.5713521 C451.625079,75.0659597 449.917079,74.2697936 448.45713,73.2036233 C446.99718,72.1305298 445.856151,70.7735857 445.041131,69.1397144 C444.22611,67.505843 443.807969,65.5535051 443.807969,63.3034704 C443.807969,60.8180474 444.27572,58.7757082 445.225396,57.1695295 C446.167985,55.5633509 447.379885,54.2756387 448.875271,53.3133162 C450.363569,52.3579168 452.064481,51.6379057 453.985095,51.1532828 C455.898621,50.6755831 457.826322,50.294808 459.775284,50.0109575 C461.717158,49.7271069 463.637772,49.5055651 465.52295,49.3324855 C467.408128,49.166329 469.080691,48.9032481 470.540641,48.5709352 C472.000591,48.2316992 473.155794,47.7401532 474.00625,47.0893739 C474.856706,46.4385946 475.246498,45.4970416 475.189801,44.2508685 C475.189801,42.9562332 474.963013,41.9246788 474.509436,41.1631286 C474.05586,40.4015783 473.446366,39.8061845 472.680956,39.3838703 C471.915545,38.9615561 471.043828,38.6777056 470.037454,38.5392419 C469.00982,38.4007782 467.932575,38.3315464 466.777373,38.3315464 C464.226004,38.3315464 462.213258,38.8369388 460.753308,39.8546468 C459.293358,40.8723548 458.442902,42.5685349 458.20194,44.9362637 L445.246658,44.9362637 C445.43801,42.1116047 446.196334,39.7715686 447.535802,37.9092322 L447.535802,37.9092322 L447.535802,37.9092322 Z M473.113271,54.8779557 C472.291163,55.1341135 471.412359,55.341809 470.46977,55.5148886 C469.527181,55.681045 468.542069,55.8264319 467.507347,55.9372028 C466.472626,56.0548969 465.437904,56.1933606 464.403182,56.3664402 C463.432245,56.5325966 462.475482,56.7610617 461.532893,57.0449122 C460.590304,57.3287628 459.768196,57.7095379 459.073657,58.1872376 C458.379118,58.6649372 457.812147,59.2741774 457.386919,60.0080349 C456.961691,60.7418924 456.749077,61.6765222 456.749077,62.798078 C456.749077,63.8711715 456.961691,64.7781086 457.386919,65.511966 C457.812147,66.2458235 458.393292,66.8204478 459.123267,67.242762 C459.853242,67.6650762 460.703698,67.9627731 461.674636,68.1289295 C462.645573,68.2950859 463.644859,68.3850873 464.686668,68.3850873 C467.238036,68.3850873 469.215347,67.9904659 470.611512,67.2012229 C472.007678,66.4119799 473.042399,65.4704269 473.715677,64.3696407 C474.381868,63.2688545 474.792922,62.1542219 474.941752,61.0257429 C475.090581,59.897264 475.16854,58.9972501 475.16854,58.3118549 L475.16854,53.8187086 C474.615743,54.2687155 473.935378,54.6217979 473.113271,54.8779557 L473.113271,54.8779557 L473.113271,54.8779557 Z" id="Shape" fill="#474F67"></path>
            <path d="M437.659879,31.4775944 L437.659879,39.5154108 L428.177293,39.5154108 L428.177293,61.1849762 C428.177293,63.213469 428.538737,64.570413 429.268712,65.2488851 C429.998687,65.9273571 431.458637,66.2596699 433.648561,66.2596699 C434.378536,66.2596699 435.080162,66.2319772 435.746353,66.1765917 C436.412544,66.1212062 437.057473,66.0312048 437.666967,65.9204339 L437.666967,75.2321161 C436.575548,75.3982725 435.356561,75.5159667 434.017092,75.5713521 C432.677624,75.6267376 431.366504,75.6544303 430.09082,75.6544303 C428.085161,75.6544303 426.185809,75.5228898 424.392764,75.2736552 C422.599718,75.0244206 421.019287,74.5259514 419.65147,73.7920939 C418.283654,73.0582364 417.199322,72.0128357 416.41265,70.6628148 C415.625978,69.3058708 415.229099,67.5266125 415.229099,65.3319633 L415.229099,39.5154108 L407.383641,39.5154108 L407.383641,31.4775944 L415.229099,31.4775944 L415.229099,18.358161 L428.177293,18.358161 L428.177293,31.4775944 L437.659879,31.4775944 L437.659879,31.4775944 Z" id="Shape" fill="#474F67"></path>
            <path d="M370.757124,31.4775944 L370.757124,37.5699961 L371.026436,37.5699961 C372.663564,35.0291877 374.796791,33.1806976 377.404857,32.0245259 C380.020009,30.8683542 382.698946,30.2868068 385.43458,30.2868068 C388.900189,30.2868068 391.74213,30.7229674 393.960403,31.5952885 C396.178676,32.4676097 397.929198,33.68609 399.204883,35.2368832 C400.480567,36.7876764 401.380633,38.6777056 401.897994,40.9069708 C402.415354,43.1362359 402.670491,45.6078126 402.670491,48.3147774 L402.670491,75.2321161 L389.715209,75.2321161 L389.715209,50.5163499 C389.715209,46.9093711 389.112803,44.2093294 387.893816,42.4369944 C386.681916,40.6577361 384.52034,39.7715686 381.416175,39.7715686 C377.886782,39.7715686 375.335413,40.7477375 373.754982,42.6931522 C372.174551,44.6385668 371.387879,47.8440009 371.387879,52.3025313 L371.387879,75.2321161 L358.439685,75.2321161 L358.439685,31.4775944 L370.757124,31.4775944 L370.757124,31.4775944 Z" id="Shape" fill="#474F67"></path>
            <path d="M320.377553,64.7365695 C322.319427,66.488135 325.118846,67.3604561 328.76872,67.3604561 C331.383873,67.3604561 333.637581,66.7581391 335.522759,65.5396588 C337.407937,64.3281016 338.56314,63.0473126 338.988368,61.6903686 L350.38448,61.6903686 C348.563087,66.9381419 345.763669,70.6905075 341.993313,72.9474655 C338.222957,75.2044234 333.658843,76.3329024 328.315143,76.3329024 C324.608572,76.3329024 321.256357,75.7859708 318.279761,74.6851846 C315.303164,73.5843984 312.773057,72.0197588 310.710701,69.9843428 C308.641258,67.9558499 307.046652,65.5258124 305.926885,62.7080766 C304.800031,59.8903408 304.240147,56.7887544 304.240147,53.3963944 C304.240147,50.1286516 304.821292,47.0755275 305.976495,44.2577917 C307.131698,41.4400559 308.768826,38.996172 310.902054,36.9399864 C313.028194,34.8838008 315.565388,33.2568526 318.513636,32.0729882 C321.461884,30.8891238 324.729053,30.29373 328.32223,30.29373 C332.333549,30.29373 335.827506,31.0137411 338.804102,32.4537633 C341.780699,33.8937855 344.232848,35.8253538 346.146374,38.2484682 C348.0599,40.6785057 349.441891,43.440856 350.292348,46.5424424 C351.142804,49.6440287 351.44755,52.8910019 351.199501,56.2764388 L317.181255,56.2764388 C317.36552,60.1672681 318.428591,62.9919271 320.377553,64.7365695 L320.377553,64.7365695 L320.377553,64.7365695 Z M335.012485,41.7169833 C333.460403,40.1384973 331.107474,39.3492544 327.946612,39.3492544 C325.877169,39.3492544 324.162082,39.674644 322.794265,40.3254233 C321.426449,40.9762026 320.327943,41.7792919 319.512922,42.7416145 C318.697902,43.703937 318.116757,44.7147219 317.776574,45.7878153 C317.443479,46.8609088 317.245039,47.8163082 317.188342,48.6678598 L338.258393,48.6678598 C337.641812,45.6078126 336.564568,43.2954692 335.012485,41.7169833 L335.012485,41.7169833 L335.012485,41.7169833 Z" id="Shape" fill="#474F67"></path>
            <path d="M268.217275,64.3557943 C268.79842,65.283501 269.542569,66.0450512 270.449722,66.640445 C271.363963,67.2289156 272.412858,67.6650762 273.59641,67.9489268 C274.779961,68.2327773 276.013123,68.371241 277.288807,68.371241 C278.203047,68.371241 279.159811,68.2743164 280.159096,68.0735441 C281.16547,67.8796949 282.072623,67.5681516 282.89473,67.1458374 C283.716838,66.7235232 284.397203,66.1558221 284.949999,65.4496574 C285.495709,64.7434926 285.772107,63.8573251 285.772107,62.7842316 C285.772107,60.9842038 284.482249,59.6272598 281.895444,58.7272459 C279.30864,57.827232 275.708376,56.9202949 271.087564,56.020281 C269.202386,55.6256596 267.359731,55.1548831 265.566686,54.6217979 C263.773641,54.0887127 262.179036,53.382548 260.782871,52.5033036 C259.386705,51.6309825 258.259851,50.5301963 257.409395,49.200945 C256.551851,47.8786169 256.13371,46.2516687 256.13371,44.3339467 C256.13371,41.5162109 256.721943,39.2038675 257.912581,37.3969166 C259.096133,35.5899656 260.662389,34.1707129 262.611351,33.1253121 C264.553226,32.0799114 266.743151,31.3460539 269.181125,30.9237397 C271.612012,30.5014255 274.106684,30.2868068 276.658052,30.2868068 C279.20942,30.2868068 281.68283,30.5152718 284.085369,30.9652788 C286.487908,31.4152857 288.635309,32.176836 290.5134,33.2499294 C292.398578,34.3230229 293.964835,35.7422756 295.21217,37.5215339 C296.459506,39.3007921 297.203655,41.5439037 297.444618,44.2508685 L285.134265,44.2508685 C284.957087,41.9454483 284.007411,40.3738856 282.306498,39.5569499 C280.598499,38.7400142 278.599927,38.3315464 276.282434,38.3315464 C275.552459,38.3315464 274.765787,38.3730855 273.915331,38.4561637 C273.064875,38.5461651 272.292377,38.7261678 271.590751,39.0100184 C270.889124,39.2938689 270.293805,39.7023368 269.81188,40.2354219 C269.322868,40.7754303 269.081905,41.4954414 269.081905,42.3954553 C269.081905,43.4685488 269.507133,44.3408699 270.357589,45.0193419 C271.208046,45.697814 272.320726,46.2447455 273.688543,46.6670597 C275.05636,47.0893739 276.622616,47.470149 278.387313,47.809385 C280.152009,48.148621 281.945054,48.5155498 283.766448,48.9101712 C285.651626,49.3117159 287.487194,49.7824924 289.280239,50.3501935 C291.073284,50.9178946 292.674976,51.6586752 294.071142,52.593305 C295.467307,53.5210117 296.594162,54.6771834 297.444618,56.0618201 C298.295074,57.4464569 298.720302,59.1495601 298.720302,61.1849762 C298.720302,64.0650206 298.096634,66.4742886 296.849298,68.4197032 C295.601963,70.3651179 293.979009,71.9297574 291.97335,73.1205451 C289.967691,74.3044095 287.671459,75.1421147 285.084655,75.6198144 C282.497851,76.0975141 279.868524,76.3398255 277.196674,76.3398255 C274.46104,76.3398255 271.782103,76.0836677 269.174038,75.5782753 C266.558885,75.0728829 264.234305,74.2213313 262.19321,73.0374669 C260.159203,71.8536024 258.486639,70.2889629 257.175519,68.336625 C255.864399,66.3912104 255.148599,63.9542497 255.035204,61.0188197 L267.345557,61.0188197 C267.352644,62.3134551 267.643217,63.4280877 268.217275,64.3557943 L268.217275,64.3557943 L268.217275,64.3557943 Z" id="Shape" fill="#474F67"></path>
            <path d="M217.229412,32.0320052 L217.229412,38.124407 L217.50581,38.124407 C219.142938,35.5835985 221.276166,33.7351084 223.884231,32.5789367 C226.499384,31.422765 229.178321,30.8412176 231.913955,30.8412176 C235.379563,30.8412176 238.221504,31.2773782 240.439778,32.1496993 C242.658051,33.0220205 244.408573,34.2405009 245.684257,35.791294 C246.959941,37.3420872 247.860007,39.2321164 248.370281,41.4613816 C248.887642,43.6906468 249.149866,46.1622234 249.149866,48.8691883 L249.149866,75.786527 L236.194584,75.786527 L236.194584,51.0707607 C236.194584,47.463782 235.58509,44.7637403 234.37319,42.9914052 C233.16129,41.2190701 230.999714,40.3259794 227.895549,40.3259794 C224.366156,40.3259794 221.814788,41.3021484 220.234357,43.247563 C218.653926,45.1929777 217.867254,48.3984118 217.867254,52.8569421 L217.867254,75.786527 L204.919059,75.786527 L204.919059,32.0320052 L217.229412,32.0320052 L217.229412,32.0320052 Z" id="Shape" fill="#474F67"></path>
            <path d="M167.295509,64.7365695 C169.237383,66.488135 172.036802,67.3604561 175.686676,67.3604561 C178.301829,67.3604561 180.555537,66.7581391 182.440715,65.5396588 C184.325893,64.3281016 185.481096,63.0473126 185.906324,61.6903686 L197.302436,61.6903686 C195.481043,66.9381419 192.681625,70.6905075 188.911269,72.9474655 C185.140913,75.2044234 180.583886,76.3329024 175.233099,76.3329024 C171.526528,76.3329024 168.174313,75.7859708 165.197717,74.6851846 C162.22112,73.5843984 159.691013,72.0197588 157.628657,69.9843428 C155.559214,67.9558499 153.964608,65.5258124 152.844841,62.7080766 C151.717987,59.8903408 151.158103,56.7887544 151.158103,53.3963944 C151.158103,50.1286516 151.739248,47.0755275 152.894451,44.2577917 C154.049654,41.4400559 155.693869,38.996172 157.82001,36.9399864 C159.94615,34.8838008 162.483344,33.2568526 165.438679,32.0729882 C168.386927,30.8891238 171.654096,30.29373 175.240186,30.29373 C179.251505,30.29373 182.745462,31.0137411 185.722058,32.4537633 C188.698655,33.8937855 191.150803,35.8253538 193.06433,38.2484682 C194.977856,40.6715825 196.359847,43.440856 197.210304,46.5424424 C198.06076,49.6440287 198.365506,52.8910019 198.117457,56.2764388 L164.099211,56.2764388 C164.283476,60.1672681 165.346547,62.9919271 167.295509,64.7365695 L167.295509,64.7365695 L167.295509,64.7365695 Z M181.930441,41.7169833 C180.378359,40.1384973 178.02543,39.3492544 174.857481,39.3492544 C172.788038,39.3492544 171.072951,39.674644 169.705134,40.3254233 C168.337317,40.9762026 167.245899,41.7792919 166.423791,42.7416145 C165.601683,43.703937 165.020538,44.7147219 164.687443,45.7878153 C164.354348,46.8609088 164.155908,47.8163082 164.092124,48.6678598 L185.162175,48.6678598 C184.559768,45.6078126 183.482524,43.2954692 181.930441,41.7169833 L181.930441,41.7169833 L181.930441,41.7169833 Z" id="Shape" fill="#474F67"></path>
            <ellipse id="Oval" fill="#474F67" cx="66.9734216" cy="65.4240871" rx="66.9734216" ry="65.4240871"></ellipse>
            <path d="M51.8636507,29.0427561 C51.2825057,29.0427561 50.6588378,29.1396807 50.0209957,29.3335298 C47.1861419,30.1781583 44.3442009,31.0574026 41.5235214,31.9504933 C38.4193564,32.9820477 36.0168178,35.4605475 36.130212,37.5236563 C36.2294319,39.434455 36.3144775,41.3867929 36.4136974,43.3806698 C36.5058301,45.3953163 38.7595389,46.9391863 41.5731313,46.9391863 C41.7503097,46.9391863 41.927488,46.9322631 42.1117535,46.9253399 C44.8899103,46.6968749 47.6964156,46.4684098 50.5029209,46.2607143 C53.5858244,46.059942 56.09467,43.4706712 56.0592344,40.5283181 C56.0237987,37.890585 55.9600145,35.2805447 55.882056,32.7189667 C55.8111846,30.4550856 54.1173595,29.0427561 51.8636507,29.0427561" id="Shape" fill="#FFFFFF"></path>
            <path d="M50.8856261,48.1853594 C50.7651448,48.1853594 50.6446635,48.1853594 50.5241823,48.1922826 C47.7318512,48.3445926 44.9324331,48.4969027 42.1613635,48.6492127 C39.0997214,48.8569082 36.7255313,50.8230924 36.817664,53.0246649 C36.8956225,55.0531577 36.973581,57.0747274 37.0444523,59.0824507 C37.1365851,61.2494073 39.5320366,63.4648261 42.4235875,64.0394503 C45.0600015,64.5309964 47.7105898,65.0086961 50.3682653,65.4656262 C50.6942735,65.5279349 51.0273688,65.5625508 51.3462899,65.5625508 C53.8126127,65.5625508 55.7686618,63.7694462 55.8607946,61.1870986 C55.9529273,58.5701351 56.0096244,55.9185557 56.0521472,53.2531299 C56.1017572,50.4007782 53.7984384,48.1853594 50.8856261,48.1853594" id="Shape" fill="#FFFFFF"></path>
            <path d="M41.0486834,65.5487044 C38.8587588,65.5487044 37.3137634,66.6910297 37.3775477,68.3733634 C37.4413319,70.2495462 37.4980289,72.0564972 37.554726,73.7942163 C37.6326845,75.6703991 39.7800863,78.1558221 42.3810647,79.4089184 C44.7552547,80.523551 47.1436191,81.6104909 49.5319834,82.6628148 C50.2832197,83.008974 51.0131945,83.1682072 51.6722981,83.1682072 C53.3236004,83.1682072 54.563849,82.1574224 54.7410273,80.3643178 C54.9394671,78.1004367 55.1237326,75.7465542 55.2796495,73.3026703 C55.4710022,70.5887822 53.2243805,67.8472014 50.3115682,67.3071931 C47.6822413,66.7879543 45.0458272,66.247946 42.4306746,65.6940913 C41.9487494,65.5971667 41.4880857,65.5487044 41.0486834,65.5487044" id="Shape" fill="#FFFFFF"></path>
            <path d="M39.5391237,79.997389 C38.447705,79.997389 37.7602529,80.4958583 37.8027757,81.4027954 C37.8452985,82.8289712 37.8878213,84.1512993 37.9374313,85.3351638 C38.0012155,86.622876 39.8296962,88.9421425 42.0125337,90.7006312 C44.0181927,92.2721939 46.0380261,93.8160639 48.0507723,95.3391644 C49.191801,96.2253319 50.3186554,96.6891852 51.1832858,96.6891852 C51.984132,96.6891852 52.5581899,96.2876406 52.7353682,95.4499353 C53.0472022,93.8852958 53.3377747,92.1544998 53.6070858,90.278317 C53.9260068,88.1944387 52.0337419,85.3628565 49.4185893,84.1720689 C47.0656606,83.0574363 44.7056448,81.9220341 42.3668904,80.7520161 C41.2896459,80.2466237 40.3116214,79.997389 39.5391237,79.997389" id="Shape" fill="#FFFFFF"></path>
            <path d="M72.6218678,23.1926658 C72.2533368,23.1926658 71.8706315,23.2480513 71.4808391,23.351899 C68.8656865,24.0372942 66.1725754,24.7573053 63.4298543,25.5050092 C60.4036478,26.3704072 57.9798478,29.3750689 58.0719806,32.2274207 C58.1570262,34.8513073 58.2137233,37.5305795 58.2420718,40.2375444 C58.2704203,43.0760497 60.5879133,45.2983917 63.4298543,45.2983917 C63.5361613,45.2983917 63.6424683,45.2983917 63.7487753,45.2914685 C66.4560607,45.1045426 69.1066491,44.9245398 71.6721918,44.7514602 C74.4999585,44.592227 76.7678415,41.5183334 76.8032772,37.925201 C76.8316257,34.6851509 76.8245386,31.4727936 76.7678415,28.3019755 C76.7111445,25.2557746 74.9535351,23.1926658 72.6218678,23.1926658" id="Shape" fill="#FFFFFF"></path>
            <path d="M71.8281087,47.1745745 C71.7572374,47.1745745 71.6863661,47.1745745 71.6154947,47.1814977 C69.0570391,47.2922687 66.4135379,47.416886 63.7204268,47.5415033 C60.7367432,47.7215061 58.2349847,50.3107768 58.1782876,53.2738995 C58.1286776,56.0085571 58.0507192,58.7224452 57.9514993,61.3947941 C57.8451923,64.3163777 60.0918139,67.0648817 62.8983192,67.5356582 C65.4638619,67.944126 67.9727075,68.3318243 70.4035947,68.6918299 C70.6091216,68.7264458 70.8146485,68.7402921 71.0060011,68.7402921 C73.422714,68.7402921 75.4425474,66.3656401 75.7047713,63.1048205 C75.9528211,59.9270791 76.158348,56.7077987 76.3213521,53.4677486 C76.5127047,49.9576944 74.5424813,47.1745745 71.8281087,47.1745745" id="Shape" fill="#FFFFFF"></path>
            <path d="M61.8777718,69.6056901 C59.4397975,69.6056901 57.4270513,71.3849484 57.2640472,73.8149859 C57.0797817,76.3073321 56.8742548,78.7235232 56.6474665,81.0427898 C56.4065039,83.5628287 58.2987689,86.4013341 60.8430502,87.4813507 C63.1605432,88.4298269 65.4426005,89.3506104 67.6608736,90.2229315 C68.1498859,90.4167807 68.6247239,90.5137053 69.0924748,90.5137053 C70.9634783,90.5137053 72.5651707,88.9836816 72.9762245,86.512105 C73.4298012,83.7289851 73.8479421,80.8350943 74.2235602,77.8581252 C74.6487883,74.5557666 72.8770047,71.4264875 70.2051549,70.9903269 C67.7955292,70.5749359 65.3008578,70.1318521 62.7494894,69.674922 C62.4518297,69.6333829 62.1612572,69.6056901 61.8777718,69.6056901" id="Shape" fill="#FFFFFF"></path>
            <path d="M58.5113829,88.8036789 C56.8671677,88.8036789 55.5914835,89.7244623 55.357608,91.2267932 C55.0528612,93.1445151 54.7268531,94.9237734 54.3724963,96.5368752 C54.0039653,98.2884407 55.463915,100.836172 57.6254911,102.442351 C59.6028016,103.882373 61.5659379,105.28778 63.4936385,106.65857 C64.3370075,107.274733 65.2158122,107.579353 66.0024841,107.579353 C67.2002099,107.579353 68.2136701,106.887035 68.6601596,105.509321 C69.312176,103.466982 69.9216695,101.251563 70.5028146,98.8838345 C71.1477438,96.2461015 69.737404,93.1375919 67.2994298,92.1475766 C65.1095052,91.21987 62.8628835,90.2506243 60.5666519,89.2536858 C59.8508513,88.9421425 59.1563122,88.8036789 58.5113829,88.8036789" id="Shape" fill="#FFFFFF"></path>
            <path d="M88.9506258,18.9764468 C87.1575808,19.4056842 85.2440545,19.8695376 83.2313082,20.3680068 C80.7224626,21.0118629 78.6104965,24.404223 78.6671936,27.9212003 C78.7168035,31.147404 78.7238907,34.4151468 78.6813679,37.6967359 C78.6388451,41.2206365 80.6303299,44.0245259 82.9903457,44.0245259 C83.0399556,44.0245259 83.0966527,44.0245259 83.1391755,44.0176027 C85.3574486,43.879139 87.4268919,43.7545217 89.3404182,43.6437508 C91.4382101,43.539903 93.0895124,40.147543 93.224168,36.0905573 C93.3375621,32.428193 93.4084335,28.7658288 93.436782,25.1380804 C93.4651305,22.1403419 92.5721516,19.7933825 91.2114218,19.017986 L88.9648001,19.017986 L88.9506258,18.9764468" id="Shape" fill="#FFFFFF"></path>
            <path d="M89.3120697,46.4268707 L89.2199369,46.4268707 C87.3205849,46.5030257 85.2511416,46.5861039 83.0541299,46.6830285 C80.6232427,46.814569 78.3624468,49.8815394 78.1710942,53.481595 C78.0010029,56.7701073 77.7742146,60.0378501 77.5190778,63.2640537 C77.2355924,66.7879543 79.0002889,69.9241566 81.3106948,70.277239 C83.4155737,70.5680127 85.3928843,70.84494 87.2142779,71.0872515 C87.2993235,71.0941746 87.3914562,71.1010978 87.483589,71.1010978 C89.382941,71.1010978 91.0271563,68.2210534 91.3956873,64.440995 C91.750044,60.8686321 92.0547908,57.247807 92.3099276,53.6062123 C92.6075873,49.639228 91.3531644,46.4268707 89.3120697,46.4268707" id="Shape" fill="#FFFFFF"></path>
            <path d="M80.5878071,72.7765083 C78.426231,72.7765083 76.3426135,75.1580835 75.9528211,78.2596699 C75.5559415,81.278178 75.1236263,84.2205312 74.6487883,87.0521133 C74.1385146,90.1398533 75.5488544,93.2622092 77.7033433,94.1068377 C79.6664796,94.8406951 81.5374831,95.5399367 83.2880053,96.1837928 C83.5289679,96.2807174 83.7770176,96.3222565 84.0250673,96.3222565 C85.6976311,96.3222565 87.2709749,94.2106854 87.8166843,91.0952527 C88.3907422,87.869049 88.9151902,84.552844 89.4042024,81.1604839 C89.9428247,77.4081183 88.908103,74.043451 86.9024439,73.7526772 C85.0881375,73.4688267 83.1250012,73.1642066 81.0342965,72.8249706 C80.8854667,72.7903547 80.7366369,72.7765083 80.5878071,72.7765083" id="Shape" fill="#FFFFFF"></path>
            <path d="M76.0591281,96.0245596 C74.2802573,96.0245596 72.6076935,97.4922745 72.0761585,99.6453847 C71.4808391,102.061576 70.8359099,104.325457 70.1626321,106.423182 C69.4255701,108.714756 70.4532046,111.532491 72.4163409,112.958667 C74.2164731,114.22561 75.9599082,115.44409 77.6466462,116.627955 C78.164007,117.001807 78.7168035,117.188733 79.2625129,117.188733 C80.6303299,117.188733 81.9272755,116.018714 82.5509433,113.927913 C83.3305281,111.324796 84.0675901,108.576292 84.7692164,105.703171 C85.534627,102.511583 84.7125194,99.202301 82.7919059,98.4684435 C81.0484708,97.7830483 79.1916415,97.0353444 77.2355924,96.2461015 C76.8599743,96.0937914 76.4560076,96.0245596 76.0591281,96.0245596" id="Shape" fill="#FFFFFF"></path>
            <path d="M163.228,101.348 L170.068,101.348 C172.01201,101.348 173.409996,101.006003 174.262,100.322 C175.114004,99.6379966 175.54,98.6120068 175.54,97.244 C175.54,96.3319954 175.396001,95.6120026 175.108,95.084 C174.819999,94.5559974 174.424003,94.1480014 173.92,93.86 C173.415997,93.5719986 172.834003,93.3860004 172.174,93.302 C171.513997,93.2179996 170.812004,93.176 170.068,93.176 L163.228,93.176 L163.228,101.348 Z M159.808,90.296 L169.132,90.296 C169.684003,90.296 170.277997,90.3019999 170.914,90.314 C171.550003,90.3260001 172.179997,90.3619997 172.804,90.422 C173.428003,90.4820003 174.009997,90.5719994 174.55,90.692 C175.090003,90.8120006 175.551998,90.9919988 175.936,91.232 C176.776004,91.7360025 177.489997,92.4319956 178.078,93.32 C178.666003,94.2080044 178.96,95.2999935 178.96,96.596 C178.96,97.9640068 178.630003,99.145995 177.97,100.142 C177.309997,101.138005 176.368006,101.875998 175.144,102.356 L175.144,102.428 C176.728008,102.764002 177.939996,103.483994 178.78,104.588 C179.620004,105.692006 180.04,107.035992 180.04,108.62 C180.04,109.556005 179.872002,110.467996 179.536,111.356 C179.199998,112.244004 178.702003,113.029997 178.042,113.714 C177.381997,114.398003 176.566005,114.949998 175.594,115.37 C174.621995,115.790002 173.500006,116 172.228,116 L159.808,116 L159.808,90.296 Z M163.228,113.12 L171.796,113.12 C173.308008,113.12 174.489996,112.712004 175.342,111.896 C176.194004,111.079996 176.62,109.952007 176.62,108.512 C176.62,107.671996 176.464002,106.976003 176.152,106.424 C175.839998,105.871997 175.426003,105.434002 174.91,105.11 C174.393997,104.785998 173.800003,104.558001 173.128,104.426 C172.455997,104.293999 171.760004,104.228 171.04,104.228 L163.228,104.228 L163.228,113.12 Z M199.372,116 L199.372,97.388 L196.312,97.388 L196.312,107.9 C196.312,108.740004 196.198001,109.513996 195.97,110.222 C195.741999,110.930004 195.400002,111.547997 194.944,112.076 C194.487998,112.604003 193.918003,113.011999 193.234,113.3 C192.549997,113.588001 191.740005,113.732 190.804,113.732 C189.627994,113.732 188.704003,113.396003 188.032,112.724 C187.359997,112.051997 187.024,111.140006 187.024,109.988 L187.024,97.388 L183.964,97.388 L183.964,109.628 C183.964,110.636005 184.065999,111.553996 184.27,112.382 C184.474001,113.210004 184.827997,113.923997 185.332,114.524 C185.836003,115.124003 186.495996,115.585998 187.312,115.91 C188.128004,116.234002 189.147994,116.396 190.372,116.396 C191.740007,116.396 192.927995,116.126003 193.936,115.586 C194.944005,115.045997 195.771997,114.200006 196.42,113.048 L196.492,113.048 L196.492,116 L199.372,116 Z M205.852,110.132 L202.792,110.132 C202.84,111.284006 203.079998,112.261996 203.512,113.066 C203.944002,113.870004 204.519996,114.517998 205.24,115.01 C205.960004,115.502002 206.787995,115.855999 207.724,116.072 C208.660005,116.288001 209.643995,116.396 210.676,116.396 C211.612005,116.396 212.553995,116.306001 213.502,116.126 C214.450005,115.945999 215.301996,115.628002 216.058,115.172 C216.814004,114.715998 217.425998,114.116004 217.894,113.372 C218.362002,112.627996 218.596,111.692006 218.596,110.564 C218.596,109.675996 218.422002,108.932003 218.074,108.332 C217.725998,107.731997 217.270003,107.234002 216.706,106.838 C216.141997,106.441998 215.494004,106.124001 214.762,105.884 C214.029996,105.643999 213.280004,105.440001 212.512,105.272 C211.791996,105.103999 211.072004,104.942001 210.352,104.786 C209.631996,104.629999 208.984003,104.438001 208.408,104.21 C207.831997,103.981999 207.358002,103.694002 206.986,103.346 C206.613998,102.997998 206.428,102.560003 206.428,102.032 C206.428,101.551998 206.547999,101.162002 206.788,100.862 C207.028001,100.561999 207.339998,100.322001 207.724,100.142 C208.108002,99.9619991 208.533998,99.8360004 209.002,99.764 C209.470002,99.6919996 209.931998,99.656 210.388,99.656 C210.892003,99.656 211.389998,99.7099995 211.882,99.818 C212.374002,99.9260005 212.823998,100.099999 213.232,100.34 C213.640002,100.580001 213.975999,100.897998 214.24,101.294 C214.504001,101.690002 214.66,102.187997 214.708,102.788 L217.768,102.788 C217.696,101.659994 217.456002,100.718004 217.048,99.962 C216.639998,99.2059962 216.094003,98.6060022 215.41,98.162 C214.725997,97.7179978 213.940004,97.4060009 213.052,97.226 C212.163996,97.0459991 211.192005,96.956 210.136,96.956 C209.319996,96.956 208.498004,97.057999 207.67,97.262 C206.841996,97.466001 206.098003,97.7779979 205.438,98.198 C204.777997,98.6180021 204.238002,99.1639966 203.818,99.836 C203.397998,100.508003 203.188,101.311995 203.188,102.248 C203.188,103.448006 203.487997,104.383997 204.088,105.056 C204.688003,105.728003 205.437995,106.249998 206.338,106.622 C207.238004,106.994002 208.215995,107.281999 209.272,107.486 C210.328005,107.690001 211.305995,107.917999 212.206,108.17 C213.106005,108.422001 213.855997,108.751998 214.456,109.16 C215.056003,109.568002 215.356,110.167996 215.356,110.96 C215.356,111.536003 215.212001,112.009998 214.924,112.382 C214.635999,112.754002 214.270002,113.035999 213.826,113.228 C213.381998,113.420001 212.896003,113.552 212.368,113.624 C211.839997,113.696 211.336002,113.732 210.856,113.732 C210.231997,113.732 209.626003,113.672001 209.038,113.552 C208.449997,113.431999 207.922002,113.234001 207.454,112.958 C206.985998,112.681999 206.608001,112.310002 206.32,111.842 C206.031999,111.373998 205.876,110.804003 205.852,110.132 Z M225.22,94.04 L225.22,90.296 L222.16,90.296 L222.16,94.04 L225.22,94.04 Z M222.16,97.388 L222.16,116 L225.22,116 L225.22,97.388 L222.16,97.388 Z M229.972,97.388 L229.972,116 L233.032,116 L233.032,105.488 C233.032,104.647996 233.145999,103.874004 233.374,103.166 C233.602001,102.457996 233.943998,101.840003 234.4,101.312 C234.856002,100.783997 235.425997,100.376001 236.11,100.088 C236.794003,99.7999986 237.603995,99.656 238.54,99.656 C239.716006,99.656 240.639997,99.9919966 241.312,100.664 C241.984003,101.336003 242.32,102.247994 242.32,103.4 L242.32,116 L245.38,116 L245.38,103.76 C245.38,102.751995 245.278001,101.834004 245.074,101.006 C244.869999,100.177996 244.516003,99.464003 244.012,98.864 C243.507997,98.263997 242.848004,97.7960017 242.032,97.46 C241.215996,97.1239983 240.196006,96.956 238.972,96.956 C236.211986,96.956 234.196006,98.0839887 232.924,100.34 L232.852,100.34 L232.852,97.388 L229.972,97.388 Z M262.912,104.912 C262.864,104.191996 262.702001,103.508003 262.426,102.86 C262.149999,102.211997 261.778002,101.654002 261.31,101.186 C260.841998,100.717998 260.290003,100.346001 259.654,100.07 C259.017997,99.7939986 258.316004,99.656 257.548,99.656 C256.755996,99.656 256.042003,99.7939986 255.406,100.07 C254.769997,100.346001 254.224002,100.723998 253.768,101.204 C253.311998,101.684002 252.952001,102.241997 252.688,102.878 C252.423999,103.514003 252.268,104.191996 252.22,104.912 L262.912,104.912 Z M265.864,110.096 C265.455998,112.18401 264.556007,113.755995 263.164,114.812 C261.771993,115.868005 260.020011,116.396 257.908,116.396 C256.419993,116.396 255.130005,116.156002 254.038,115.676 C252.945995,115.195998 252.028004,114.524004 251.284,113.66 C250.539996,112.795996 249.982002,111.764006 249.61,110.564 C249.237998,109.363994 249.028,108.056007 248.98,106.64 C248.98,105.223993 249.195998,103.928006 249.628,102.752 C250.060002,101.575994 250.665996,100.556004 251.446,99.692 C252.226004,98.8279957 253.149995,98.1560024 254.218,97.676 C255.286005,97.1959976 256.455994,96.956 257.728,96.956 C259.384008,96.956 260.757995,97.2979966 261.85,97.982 C262.942005,98.6660034 263.817997,99.5359947 264.478,100.592 C265.138003,101.648005 265.593999,102.799994 265.846,104.048 C266.098001,105.296006 266.2,106.483994 266.152,107.612 L252.22,107.612 C252.196,108.428004 252.291999,109.201996 252.508,109.934 C252.724001,110.666004 253.071998,111.313997 253.552,111.878 C254.032002,112.442003 254.643996,112.891998 255.388,113.228 C256.132004,113.564002 257.007995,113.732 258.016,113.732 C259.312006,113.732 260.373996,113.432003 261.202,112.832 C262.030004,112.231997 262.575999,111.320006 262.84,110.096 L265.864,110.096 Z M271.192,110.132 L268.132,110.132 C268.18,111.284006 268.419998,112.261996 268.852,113.066 C269.284002,113.870004 269.859996,114.517998 270.58,115.01 C271.300004,115.502002 272.127995,115.855999 273.064,116.072 C274.000005,116.288001 274.983995,116.396 276.016,116.396 C276.952005,116.396 277.893995,116.306001 278.842,116.126 C279.790005,115.945999 280.641996,115.628002 281.398,115.172 C282.154004,114.715998 282.765998,114.116004 283.234,113.372 C283.702002,112.627996 283.936,111.692006 283.936,110.564 C283.936,109.675996 283.762002,108.932003 283.414,108.332 C283.065998,107.731997 282.610003,107.234002 282.046,106.838 C281.481997,106.441998 280.834004,106.124001 280.102,105.884 C279.369996,105.643999 278.620004,105.440001 277.852,105.272 C277.131996,105.103999 276.412004,104.942001 275.692,104.786 C274.971996,104.629999 274.324003,104.438001 273.748,104.21 C273.171997,103.981999 272.698002,103.694002 272.326,103.346 C271.953998,102.997998 271.768,102.560003 271.768,102.032 C271.768,101.551998 271.887999,101.162002 272.128,100.862 C272.368001,100.561999 272.679998,100.322001 273.064,100.142 C273.448002,99.9619991 273.873998,99.8360004 274.342,99.764 C274.810002,99.6919996 275.271998,99.656 275.728,99.656 C276.232003,99.656 276.729998,99.7099995 277.222,99.818 C277.714002,99.9260005 278.163998,100.099999 278.572,100.34 C278.980002,100.580001 279.315999,100.897998 279.58,101.294 C279.844001,101.690002 280,102.187997 280.048,102.788 L283.108,102.788 C283.036,101.659994 282.796002,100.718004 282.388,99.962 C281.979998,99.2059962 281.434003,98.6060022 280.75,98.162 C280.065997,97.7179978 279.280004,97.4060009 278.392,97.226 C277.503996,97.0459991 276.532005,96.956 275.476,96.956 C274.659996,96.956 273.838004,97.057999 273.01,97.262 C272.181996,97.466001 271.438003,97.7779979 270.778,98.198 C270.117997,98.6180021 269.578002,99.1639966 269.158,99.836 C268.737998,100.508003 268.528,101.311995 268.528,102.248 C268.528,103.448006 268.827997,104.383997 269.428,105.056 C270.028003,105.728003 270.777996,106.249998 271.678,106.622 C272.578005,106.994002 273.555995,107.281999 274.612,107.486 C275.668005,107.690001 276.645996,107.917999 277.546,108.17 C278.446005,108.422001 279.195997,108.751998 279.796,109.16 C280.396003,109.568002 280.696,110.167996 280.696,110.96 C280.696,111.536003 280.552001,112.009998 280.264,112.382 C279.975999,112.754002 279.610002,113.035999 279.166,113.228 C278.721998,113.420001 278.236003,113.552 277.708,113.624 C277.179997,113.696 276.676002,113.732 276.196,113.732 C275.571997,113.732 274.966003,113.672001 274.378,113.552 C273.789997,113.431999 273.262002,113.234001 272.794,112.958 C272.325998,112.681999 271.948001,112.310002 271.66,111.842 C271.371999,111.373998 271.216,110.804003 271.192,110.132 Z M289.192,110.132 L286.132,110.132 C286.18,111.284006 286.419998,112.261996 286.852,113.066 C287.284002,113.870004 287.859996,114.517998 288.58,115.01 C289.300004,115.502002 290.127995,115.855999 291.064,116.072 C292.000005,116.288001 292.983995,116.396 294.016,116.396 C294.952005,116.396 295.893995,116.306001 296.842,116.126 C297.790005,115.945999 298.641996,115.628002 299.398,115.172 C300.154004,114.715998 300.765998,114.116004 301.234,113.372 C301.702002,112.627996 301.936,111.692006 301.936,110.564 C301.936,109.675996 301.762002,108.932003 301.414,108.332 C301.065998,107.731997 300.610003,107.234002 300.046,106.838 C299.481997,106.441998 298.834004,106.124001 298.102,105.884 C297.369996,105.643999 296.620004,105.440001 295.852,105.272 C295.131996,105.103999 294.412004,104.942001 293.692,104.786 C292.971996,104.629999 292.324003,104.438001 291.748,104.21 C291.171997,103.981999 290.698002,103.694002 290.326,103.346 C289.953998,102.997998 289.768,102.560003 289.768,102.032 C289.768,101.551998 289.887999,101.162002 290.128,100.862 C290.368001,100.561999 290.679998,100.322001 291.064,100.142 C291.448002,99.9619991 291.873998,99.8360004 292.342,99.764 C292.810002,99.6919996 293.271998,99.656 293.728,99.656 C294.232003,99.656 294.729998,99.7099995 295.222,99.818 C295.714002,99.9260005 296.163998,100.099999 296.572,100.34 C296.980002,100.580001 297.315999,100.897998 297.58,101.294 C297.844001,101.690002 298,102.187997 298.048,102.788 L301.108,102.788 C301.036,101.659994 300.796002,100.718004 300.388,99.962 C299.979998,99.2059962 299.434003,98.6060022 298.75,98.162 C298.065997,97.7179978 297.280004,97.4060009 296.392,97.226 C295.503996,97.0459991 294.532005,96.956 293.476,96.956 C292.659996,96.956 291.838004,97.057999 291.01,97.262 C290.181996,97.466001 289.438003,97.7779979 288.778,98.198 C288.117997,98.6180021 287.578002,99.1639966 287.158,99.836 C286.737998,100.508003 286.528,101.311995 286.528,102.248 C286.528,103.448006 286.827997,104.383997 287.428,105.056 C288.028003,105.728003 288.777996,106.249998 289.678,106.622 C290.578005,106.994002 291.555995,107.281999 292.612,107.486 C293.668005,107.690001 294.645996,107.917999 295.546,108.17 C296.446005,108.422001 297.195997,108.751998 297.796,109.16 C298.396003,109.568002 298.696,110.167996 298.696,110.96 C298.696,111.536003 298.552001,112.009998 298.264,112.382 C297.975999,112.754002 297.610002,113.035999 297.166,113.228 C296.721998,113.420001 296.236003,113.552 295.708,113.624 C295.179997,113.696 294.676002,113.732 294.196,113.732 C293.571997,113.732 292.966003,113.672001 292.378,113.552 C291.789997,113.431999 291.262002,113.234001 290.794,112.958 C290.325998,112.681999 289.948001,112.310002 289.66,111.842 C289.371999,111.373998 289.216,110.804003 289.192,110.132 Z M315.904,90.296 L315.904,116 L319.144,116 L319.144,94.616 L319.216,94.616 L327.244,116 L330.16,116 L338.188,94.616 L338.26,94.616 L338.26,116 L341.5,116 L341.5,90.296 L336.82,90.296 L328.684,111.896 L320.584,90.296 L315.904,90.296 Z M348.916,106.712 C348.916,107.840006 349.065999,108.841996 349.366,109.718 C349.666001,110.594004 350.079997,111.325997 350.608,111.914 C351.136003,112.502003 351.753996,112.951998 352.462,113.264 C353.170004,113.576002 353.919996,113.732 354.712,113.732 C355.504004,113.732 356.253996,113.576002 356.962,113.264 C357.670004,112.951998 358.287997,112.502003 358.816,111.914 C359.344003,111.325997 359.757998,110.594004 360.058,109.718 C360.358002,108.841996 360.508,107.840006 360.508,106.712 C360.508,105.583994 360.358002,104.582004 360.058,103.706 C359.757998,102.829996 359.344003,102.092003 358.816,101.492 C358.287997,100.891997 357.670004,100.436002 356.962,100.124 C356.253996,99.8119984 355.504004,99.656 354.712,99.656 C353.919996,99.656 353.170004,99.8119984 352.462,100.124 C351.753996,100.436002 351.136003,100.891997 350.608,101.492 C350.079997,102.092003 349.666001,102.829996 349.366,103.706 C349.065999,104.582004 348.916,105.583994 348.916,106.712 Z M345.676,106.712 C345.676,105.343993 345.867998,104.066006 346.252,102.878 C346.636002,101.689994 347.211996,100.658004 347.98,99.782 C348.748004,98.9059956 349.695994,98.2160025 350.824,97.712 C351.952006,97.2079975 353.247993,96.956 354.712,96.956 C356.200007,96.956 357.501994,97.2079975 358.618,97.712 C359.734006,98.2160025 360.675996,98.9059956 361.444,99.782 C362.212004,100.658004 362.787998,101.689994 363.172,102.878 C363.556002,104.066006 363.748,105.343993 363.748,106.712 C363.748,108.080007 363.556002,109.351994 363.172,110.528 C362.787998,111.704006 362.212004,112.729996 361.444,113.606 C360.675996,114.482004 359.734006,115.165998 358.618,115.658 C357.501994,116.150002 356.200007,116.396 354.712,116.396 C353.247993,116.396 351.952006,116.150002 350.824,115.658 C349.695994,115.165998 348.748004,114.482004 347.98,113.606 C347.211996,112.729996 346.636002,111.704006 346.252,110.528 C345.867998,109.351994 345.676,108.080007 345.676,106.712 Z M367.456,90.296 L370.516,90.296 L370.516,99.908 L370.588,99.908 C371.092003,98.8759948 371.883995,98.1260023 372.964,97.658 C374.044005,97.1899977 375.231994,96.956 376.528,96.956 C377.968007,96.956 379.221995,97.2199974 380.29,97.748 C381.358005,98.2760026 382.245996,98.9899955 382.954,99.89 C383.662004,100.790004 384.195998,101.827994 384.556,103.004 C384.916002,104.180006 385.096,105.427993 385.096,106.748 C385.096,108.068007 384.922002,109.315994 384.574,110.492 C384.225998,111.668006 383.698004,112.693996 382.99,113.57 C382.281996,114.446004 381.394005,115.135997 380.326,115.64 C379.257995,116.144003 378.016007,116.396 376.6,116.396 C376.143998,116.396 375.634003,116.348 375.07,116.252 C374.505997,116.156 373.948003,116.000001 373.396,115.784 C372.843997,115.567999 372.322002,115.274002 371.83,114.902 C371.337998,114.529998 370.924002,114.068003 370.588,113.516 L370.516,113.516 L370.516,116 L367.456,116 L367.456,90.296 Z M381.856,106.532 C381.856,105.667996 381.742001,104.822004 381.514,103.994 C381.285999,103.165996 380.938002,102.428003 380.47,101.78 C380.001998,101.131997 379.402004,100.616002 378.67,100.232 C377.937996,99.8479981 377.080005,99.656 376.096,99.656 C375.063995,99.656 374.188004,99.859998 373.468,100.268 C372.747996,100.676002 372.160002,101.209997 371.704,101.87 C371.247998,102.530003 370.918001,103.279996 370.714,104.12 C370.509999,104.960004 370.408,105.811996 370.408,106.676 C370.408,107.588005 370.515999,108.469996 370.732,109.322 C370.948001,110.174004 371.289998,110.923997 371.758,111.572 C372.226002,112.220003 372.831996,112.741998 373.576,113.138 C374.320004,113.534002 375.219995,113.732 376.276,113.732 C377.332005,113.732 378.213996,113.528002 378.922,113.12 C379.630004,112.711998 380.199998,112.172003 380.632,111.5 C381.064002,110.827997 381.375999,110.060004 381.568,109.196 C381.760001,108.331996 381.856,107.444005 381.856,106.532 Z M391.936,94.04 L391.936,90.296 L388.876,90.296 L388.876,94.04 L391.936,94.04 Z M388.876,97.388 L388.876,116 L391.936,116 L391.936,97.388 L388.876,97.388 Z M396.868,90.296 L396.868,116 L399.928,116 L399.928,90.296 L396.868,90.296 Z M417.604,104.912 C417.556,104.191996 417.394001,103.508003 417.118,102.86 C416.841999,102.211997 416.470002,101.654002 416.002,101.186 C415.533998,100.717998 414.982003,100.346001 414.346,100.07 C413.709997,99.7939986 413.008004,99.656 412.24,99.656 C411.447996,99.656 410.734003,99.7939986 410.098,100.07 C409.461997,100.346001 408.916002,100.723998 408.46,101.204 C408.003998,101.684002 407.644001,102.241997 407.38,102.878 C407.115999,103.514003 406.96,104.191996 406.912,104.912 L417.604,104.912 Z M420.556,110.096 C420.147998,112.18401 419.248007,113.755995 417.856,114.812 C416.463993,115.868005 414.712011,116.396 412.6,116.396 C411.111993,116.396 409.822005,116.156002 408.73,115.676 C407.637995,115.195998 406.720004,114.524004 405.976,113.66 C405.231996,112.795996 404.674002,111.764006 404.302,110.564 C403.929998,109.363994 403.72,108.056007 403.672,106.64 C403.672,105.223993 403.887998,103.928006 404.32,102.752 C404.752002,101.575994 405.357996,100.556004 406.138,99.692 C406.918004,98.8279957 407.841995,98.1560024 408.91,97.676 C409.978005,97.1959976 411.147994,96.956 412.42,96.956 C414.076008,96.956 415.449995,97.2979966 416.542,97.982 C417.634005,98.6660034 418.509997,99.5359947 419.17,100.592 C419.830003,101.648005 420.285999,102.799994 420.538,104.048 C420.790001,105.296006 420.892,106.483994 420.844,107.612 L406.912,107.612 C406.888,108.428004 406.983999,109.201996 407.2,109.934 C407.416001,110.666004 407.763998,111.313997 408.244,111.878 C408.724002,112.442003 409.335996,112.891998 410.08,113.228 C410.824004,113.564002 411.699995,113.732 412.708,113.732 C414.004006,113.732 415.065996,113.432003 415.894,112.832 C416.722004,112.231997 417.267999,111.320006 417.532,110.096 L420.556,110.096 Z" id="Business-Mobile™" fill="#474F67"></path>
        </g>
    </g>
</svg>